<?xml version="1.0" encoding="UTF-8" standalone="no"?>
<svg
   version="1.0"
   width="1024.000000pt"
   height="1024.000000pt"
   viewBox="0 0 1024.000000 1024.000000"
   preserveAspectRatio="xMidYMid meet"
   id="svg48"
   sodipodi:docname="ezyicon.svg"
   inkscape:export-filename="ezyicon.svg"
   inkscape:export-xdpi="96"
   inkscape:export-ydpi="96"
   inkscape:version="1.2.2 (b0a8486541, 2022-12-01)"
   xmlns:inkscape="http://www.inkscape.org/namespaces/inkscape"
   xmlns:sodipodi="http://sodipodi.sourceforge.net/DTD/sodipodi-0.dtd"
   xmlns="http://www.w3.org/2000/svg"
   xmlns:svg="http://www.w3.org/2000/svg">
  <defs
     id="defs52" />
  <sodipodi:namedview
     id="namedview50"
     pagecolor="#ffffff"
     bordercolor="#000000"
     borderopacity="0.25"
     inkscape:showpageshadow="2"
     inkscape:pageopacity="0.0"
     inkscape:pagecheckerboard="0"
     inkscape:deskcolor="#d1d1d1"
     inkscape:document-units="pt"
     showgrid="false"
     inkscape:zoom="0.32153321"
     inkscape:cx="85.527714"
     inkscape:cy="789.96507"
     inkscape:window-width="1920"
     inkscape:window-height="1048"
     inkscape:window-x="0"
     inkscape:window-y="0"
     inkscape:window-maximized="1"
     inkscape:current-layer="svg48" />
  <path
     style="fill:#0066ff;stroke-width:2.24266"
     d="m 396.52242,930.05685 c -0.55254,-1.93554 -1.40284,-4.94923 -1.88957,-6.69709 -0.48673,-1.74787 -0.004,-18.90377 1.07237,-38.1242 3.32129,-59.29816 15.62346,-128.80148 34.36213,-194.13502 8.21218,-28.63223 8.51858,-30.76212 6.07537,-42.22988 -3.19783,-15.00972 -14.47595,-42.3392 -23.19634,-56.21009 -34.88995,-55.4968 -90.45983,-88.35716 -187.23506,-110.71846 -14.39069,-3.32515 -26.68869,-6.65719 -27.32892,-7.40447 -1.52415,-1.77905 37.29579,1.05659 57.5814,4.20609 23.1888,3.60025 58.65425,15.07478 79.2684,25.64661 9.90196,5.07815 18.35236,9.233 18.77868,9.233 0.42633,0 0.77516,-1.68662 0.77516,-3.74805 0,-2.06142 -9.40583,-13.93857 -20.90184,-26.39366 -35.01561,-37.93689 -62.31678,-49.93 -114.15617,-50.14768 -31.93205,-0.13413 -49.85961,3.1408 -82.35655,15.04424 -20.87081,7.64485 -44.126337,19.55375 -44.126337,22.59656 0,5.15409 44.018527,36.16954 77.181877,54.38235 58.12314,31.92033 95.34826,36.69573 173.64012,22.27519 6.8641,-1.26429 6.48205,-0.78594 -4.48492,5.61581 -25.13865,14.67414 -36.52381,17.50524 -70.5473,17.54274 -35.60602,0.0392 -48.98801,-2.79808 -82.41177,-17.47334 -35.65659,-15.65561 -78.73386,-44.70156 -110.528233,-74.52642 -6.248517,-5.86146 -7.114527,-7.75503 -5.178822,-11.32371 5.983511,-11.03117 51.992685,-33.62311 90.833255,-44.60199 25.73496,-7.27439 65.59523,-9.72681 89.50021,-5.50656 55.35624,9.77269 100.22431,45.36612 121.34834,96.26452 3.84361,9.26115 9.61579,17.05297 20.44839,27.60309 8.30122,8.08471 20.21202,22.25008 26.46847,31.47853 l 11.37538,16.779 0.70287,-7.88716 c 1.04615,-11.73946 -5.5333,-51.43368 -13.64283,-82.30809 -18.31596,-69.73207 -55.57552,-142.98826 -116.57914,-229.20666 -12.14886,-17.17038 -21.69786,-31.64671 -21.22003,-32.16963 1.36012,-1.48848 31.30788,28.69918 47.90586,48.2896 26.44123,31.20829 56.05722,77.74633 72.0179,113.16759 3.8952,8.64455 7.75752,15.71736 8.58291,15.71736 0.82542,0 2.19912,-8.15596 3.05269,-18.12434 1.91513,-22.36637 -1.86889,-62.94495 -7.87871,-84.48829 -6.19203,-22.19646 -24.13245,-58.94238 -37.25395,-76.30427 -29.18582,-38.61759 -78.37441,-71.43041 -141.07314,-94.10728 -25.45143,-9.20529 -47.81189,-14.90209 -49.82869,-12.69498 -1.70048,1.861 11.90853,58.23157 20.5515,85.12724 19.49964,60.68014 55.02893,114.53601 98.53286,149.35765 8.84309,7.07823 28.8141,21.20056 44.38005,31.38296 15.56593,10.18239 27.90174,18.95114 27.41293,19.48612 -2.10802,2.30693 -40.256,-12.78002 -58.93031,-23.30606 -25.75818,-14.51895 -44.85347,-30.25893 -64.16845,-52.89321 -37.51237,-43.95885 -65.35879,-106.94932 -80.23944,-181.50702 -8.35004,-41.8368 -8.98619,-48.91745 -4.56187,-50.77546 10.3686,-4.3543 88.40628,23.29251 132.99201,47.11578 49.95109,26.69013 79.58866,53.90508 105.21185,96.61167 22.87548,38.12684 31.76931,73.93432 30.40279,122.40431 -0.72531,25.72599 -1.63172,31.91536 -6.61384,45.16218 l -5.77333,15.35057 7.2728,20.27392 c 17.71681,49.38796 29.1106,110.66604 29.1106,156.5627 0,7.79298 0.72353,14.1551 1.60782,14.13798 0.88432,-0.0164 8.16682,-13.71953 16.18335,-30.44984 24.62924,-51.4007 57.30233,-102.33179 96.76604,-150.83977 l 18.35701,-22.56403 v -33.82438 c 0,-52.7155 7.15105,-87.24686 26.14813,-126.26551 24.21625,-49.73842 60.57261,-85.32293 118.55688,-116.03988 33.8129,-17.91227 67.04542,-30.57434 113.17358,-43.12079 62.07306,-16.883328 106.53768,-24.554865 109.71469,-18.929217 3.01012,5.330162 -19.36456,107.483837 -33.16948,151.438157 -40.79305,129.88365 -110.35293,194.34271 -221.59777,205.348 -28.4204,2.8116 -55.01452,0.816 -74.23802,-5.57077 -8.66074,-2.87742 -9.09907,-3.34538 -4.28756,-4.57728 2.9477,-0.75471 22.33062,-2.4791 43.07318,-3.83197 81.9678,-5.34615 127.87969,-23.52435 168.78033,-66.82633 42.00349,-44.46959 67.33591,-101.06794 89.2358,-199.37296 13.97024,-62.710006 13.4974,-57.72359 5.4735,-57.72359 -9.01098,0 -69.35661,14.29498 -103.20394,24.4475 -123.30789,36.98617 -191.70914,99.16105 -213.97971,194.50168 -4.30284,18.42053 -8.65761,53.20794 -8.66712,69.23598 l -0.006,10.1718 46.62717,-49.28298 c 53.35839,-56.39759 69.90189,-71.97929 108.79672,-102.47162 27.25808,-21.36948 71.50479,-51.53531 73.0733,-49.81876 0.43433,0.47533 -11.48832,11.48366 -26.4948,24.46295 -84.33143,72.93939 -198.29325,193.52842 -252.71183,267.40778 -31.59831,42.89823 -67.47036,112.56713 -85.3658,165.79309 -22.92862,68.19611 -38.28372,150.89976 -43.09488,232.11241 -1.43235,24.17795 -1.81376,25.69564 -8.9915,35.77808 -7.68529,10.7954 -12.71723,13.22929 -14.49265,7.00996 z"
     id="path350" />
</svg>
